<?xml version="1.0" encoding="UTF-8"?>
<svg width="48px" height="42px" viewBox="0 0 48 42" version="1.1" xmlns="http://www.w3.org/2000/svg" xmlns:xlink="http://www.w3.org/1999/xlink">
    <!-- Generator: Sketch 52.2 (67145) - http://www.bohemiancoding.com/sketch -->
    <title>Adjust Goals icon</title>
    <desc>Created with Sketch.</desc>
    <defs>
        <linearGradient x1="-42.0836733%" y1="79.3625952%" x2="123.571522%" y2="28.3580194%" id="linearGradient-1">
            <stop stop-color="#50D986" stop-opacity="0.5" offset="0%"></stop>
            <stop stop-color="#50D986" offset="100%"></stop>
        </linearGradient>
    </defs>
    <g id="Actual-Pages" stroke="none" stroke-width="1" fill="none" fill-rule="evenodd">
        <g id="Home" transform="translate(-72.000000, -829.000000)">
            <g id="Adjust-Goals-icon" transform="translate(72.000000, 829.000000)">
                <path d="M30.5506513,6.05595825 L3.73620776,10.3481975 C1.31767763,10.7353296 -0.330011826,13.0148338 0.0561105441,15.4403924 L3.37044456,36.2536702 C3.75656693,38.6788769 6.03047668,40.3308752 8.4490068,39.9437431 L35.2638013,35.6515038 C37.6819804,35.2643717 39.3300209,32.9848675 38.9438986,30.5596608 L35.6295645,9.74567915 C35.2813524,7.55838275 33.3967242,5.99964812 31.2551491,6.00000006 C31.0231247,6.00000006 30.78759,6.01830085 30.5506513,6.05595825" id="Fill-41" fill="url(#linearGradient-1)"></path>
                <path d="M46.528488,5.5 C46.4045907,5.5034444 46.2817021,5.52362265 46.1630791,5.56 C46.0410949,5.52355235 45.9149344,5.50338199 45.7877942,5.5 L39.1215496,5.5 C38.3034018,5.5 37.6401619,6.17157288 37.6401619,7 C37.6401619,7.82842712 38.3034018,8.5 39.1215496,8.5 L42.3410988,8.5 L32.089896,19.43 L27.8333754,13.72 C27.5753231,13.3754008 27.1829438,13.1603435 26.7569004,13.13 C26.3258742,13.0924031 25.9011656,13.2541293 25.601418,13.57 L15.4193466,23.93 L15.4193466,1.5 C15.4193466,0.671572875 14.7561068,0 13.9379589,0 C13.1198111,0 12.4565713,0.671572875 12.4565713,1.5 L12.4565713,3.5 L10.4813877,3.5 C9.66323986,3.5 9,4.17157288 9,5 C9,5.82842712 9.66323986,6.5 10.4813877,6.5 L12.4565713,6.5 L12.4565713,10.5 L10.4813877,10.5 C9.66323986,10.5 9,11.1715729 9,12 C9,12.8284271 9.66323986,13.5 10.4813877,13.5 L12.4565713,13.5 L12.4565713,17.5 L10.4813877,17.5 C9.66323986,17.5 9,18.1715729 9,19 C9,19.8284271 9.66323986,20.5 10.4813877,20.5 L12.4565713,20.5 L12.4565713,24.5 L10.4813877,24.5 C9.66323986,24.5 9,25.1715729 9,26 C9,26.8284271 9.66323986,27.5 10.4813877,27.5 L12.4565713,27.5 L12.4565713,31.5 L10.4813877,31.5 C9.66323986,31.5 9,32.1715729 9,33 C9,33.8284271 9.66323986,34.5 10.4813877,34.5 L12.4565713,34.5 L12.4565713,37 C12.4565713,37.8284271 13.1198111,38.5 13.9379589,38.5 L16.4069384,38.5 L16.4069384,40.5 C16.4069384,41.3284271 17.0701783,42 17.8883261,42 C18.7064739,42 19.3697138,41.3284271 19.3697138,40.5 L19.3697138,38.5 L23.320081,38.5 L23.320081,40.5 C23.320081,41.3284271 23.9833208,42 24.8014686,42 C25.6196165,42 26.2828563,41.3284271 26.2828563,40.5 L26.2828563,38.5 L30.2332235,38.5 L30.2332235,40.5 C30.2332235,41.3284271 30.8964633,42 31.7146112,42 C32.532759,42 33.1959989,41.3284271 33.1959989,40.5 L33.1959989,38.5 L37.146366,38.5 L37.146366,40.5 C37.146366,41.3284271 37.8096059,42 38.6277537,42 C39.4459015,42 40.1091414,41.3284271 40.1091414,40.5 L40.1091414,38.5 L44.0595085,38.5 L44.0595085,40.5 C44.0595085,41.3284271 44.7227484,42 45.5408962,42 C46.3590441,42 47.0222839,41.3284271 47.0222839,40.5 L47.0222839,38.11 C47.4852492,37.6987714 47.646338,37.0391187 47.425998,36.456806 C47.2056581,35.8744932 46.6505032,35.4927112 46.0346921,35.5 L15.4193466,35.5 L15.4193466,28.08 C15.529989,28.0237901 15.63291,27.9531934 15.7255001,27.87 L26.5001265,16.87 L30.776399,22.61 C31.038874,22.9596963 31.4395308,23.1753337 31.8726259,23.2 C32.3061593,23.216204 32.7261228,23.0453811 33.0281082,22.73 L45.0372244,9.92 L45.0372244,13.37 C45.0372244,14.1984271 45.7004643,14.87 46.5186121,14.87 C47.3367599,14.87 47.9999998,14.1984271 47.9999998,13.37 L47.9999998,7.04 C48.0004326,6.20863116 47.3491083,5.52699238 46.528488,5.5 L46.528488,5.5 Z" id="Shape" fill="#000000"></path>
            </g>
        </g>
    </g>
</svg>