<?xml version="1.0" encoding="UTF-8"?>
<svg width="50px" height="49px" viewBox="0 0 50 49" version="1.1" xmlns="http://www.w3.org/2000/svg" xmlns:xlink="http://www.w3.org/1999/xlink">
    <!-- Generator: Sketch 52.2 (67145) - http://www.bohemiancoding.com/sketch -->
    <title>Link Account icon</title>
    <desc>Created with Sketch.</desc>
    <defs>
        <linearGradient x1="-42.0836733%" y1="79.3625952%" x2="123.571522%" y2="28.3580194%" id="linearGradient-1">
            <stop stop-color="#50D986" stop-opacity="0.5" offset="0%"></stop>
            <stop stop-color="#50D986" offset="100%"></stop>
        </linearGradient>
    </defs>
    <g id="Actual-Pages" stroke="none" stroke-width="1" fill="none" fill-rule="evenodd">
        <g id="Home" transform="translate(-248.000000, -823.000000)">
            <g id="Link-Account-icon" transform="translate(248.000000, 823.000000)">
                <g id="Group-5">
                    <path d="M42.3040161,1.18905776 L14.772723,10.5176265 C12.3273788,11.3459351 11.0052517,13.5676692 11,15.8135707 L11,15.8413796 C11.004267,17.5453381 11.7667549,19.2598905 13.3724762,20.3878071 L38.4344641,37.9918473 C41.9150587,40.4363838 46.7161392,38.1855165 47.1067378,33.9257858 L49.576043,6.99317684 C49.8862243,3.60744071 47.2002845,0.893091387 44.078778,0.892760329 C43.4964907,0.892760329 42.9000893,0.987112025 42.3040161,1.18905776" id="Fill-51" fill="url(#linearGradient-1)"></path>
                    <g id="Group" transform="translate(0.000000, 5.000000)" fill="#000000">
                        <path d="M42.3840605,10.344068 L23.3840605,0.34406796 C22.5106352,-0.11468932 21.4674857,-0.11468932 20.5940605,0.34406796 L1.59406045,10.344068 C0.37804966,10.9893432 -0.242747208,12.3794132 0.0883473657,13.7156163 C0.41944194,15.0518194 1.61745078,15.991212 2.99406045,15.994068 L40.9940605,15.994068 C42.3706701,15.991212 43.568679,15.0518194 43.8997735,13.7156163 C44.2308681,12.3794132 43.6100712,10.9893432 42.3940605,10.344068 L42.3840605,10.344068 Z M2.98406045,12.994068 L21.9840605,2.99406796 L40.9840605,12.994068 L2.98406045,12.994068 Z" id="Shape"></path>
                        <path d="M40.9840605,40.994068 L2.98406045,40.994068 C2.15563333,40.994068 1.48406045,41.6656408 1.48406045,42.494068 C1.48406045,43.3224951 2.15563333,43.994068 2.98406045,43.994068 L40.9840605,43.994068 C41.8124876,43.994068 42.4840605,43.3224951 42.4840605,42.494068 C42.4840605,41.6656408 41.8124876,40.994068 40.9840605,40.994068 Z" id="Shape"></path>
                        <path d="M40.9840605,20.994068 C41.8124876,20.994068 42.4840605,20.3224951 42.4840605,19.494068 C42.4840605,18.6656408 41.8124876,17.994068 40.9840605,17.994068 L2.98406045,17.994068 C2.15563333,17.994068 1.48406045,18.6656408 1.48406045,19.494068 C1.48406045,20.3224951 2.15563333,20.994068 2.98406045,20.994068 L4.98406045,20.994068 L4.98406045,35.994068 L2.98406045,35.994068 C2.15563333,35.994068 1.48406045,36.6656408 1.48406045,37.494068 C1.48406045,38.3224951 2.15563333,38.994068 2.98406045,38.994068 L40.9840605,38.994068 C41.8124876,38.994068 42.4840605,38.3224951 42.4840605,37.494068 C42.4840605,36.6656408 41.8124876,35.994068 40.9840605,35.994068 L37.9840605,35.994068 L37.9840605,20.994068 L40.9840605,20.994068 Z M17.9840605,20.994068 L19.9840605,20.994068 L19.9840605,35.994068 L17.9840605,35.994068 L17.9840605,20.994068 Z M14.9840605,35.994068 L12.9840605,35.994068 L12.9840605,20.994068 L14.9840605,20.994068 L14.9840605,35.994068 Z M22.9840605,20.994068 L24.9840605,20.994068 L24.9840605,35.994068 L22.9840605,35.994068 L22.9840605,20.994068 Z M27.9840605,20.994068 L29.9840605,20.994068 L29.9840605,35.994068 L27.9840605,35.994068 L27.9840605,20.994068 Z M7.98406045,20.994068 L9.98406045,20.994068 L9.98406045,35.994068 L7.98406045,35.994068 L7.98406045,20.994068 Z M34.9840605,35.994068 L32.9840605,35.994068 L32.9840605,20.994068 L34.9840605,20.994068 L34.9840605,35.994068 Z" id="Shape"></path>
                    </g>
                </g>
            </g>
        </g>
    </g>
</svg>