<?xml version="1.0" encoding="UTF-8"?>
<svg width="52px" height="51px" viewBox="0 0 52 51" version="1.1" xmlns="http://www.w3.org/2000/svg" xmlns:xlink="http://www.w3.org/1999/xlink">
    <!-- Generator: Sketch 52.2 (67145) - http://www.bohemiancoding.com/sketch -->
    <title>Group 10</title>
    <desc>Created with Sketch.</desc>
    <defs>
        <linearGradient x1="-42.0836733%" y1="79.3625952%" x2="123.571522%" y2="28.3580194%" id="linearGradient-1">
            <stop stop-color="#50D986" stop-opacity="0.5" offset="0%"></stop>
            <stop stop-color="#50D986" offset="100%"></stop>
        </linearGradient>
    </defs>
    <g id="Actual-Pages" stroke="none" stroke-width="1" fill="none" fill-rule="evenodd">
        <g id="Home" transform="translate(-251.000000, -1000.000000)">
            <g id="Group-10" transform="translate(251.000000, 1000.000000)">
                <path d="M20.2731364,3.89625115 C14.4386961,14.2782528 15.8711615,29.6330797 28.9175535,31.1203566 C34.0818891,31.7089539 37.1649702,35.1399172 39.0054267,39.070695 C40.9084973,43.1349759 46.8848187,42.91828 48.5224453,38.7425274 C59.5218873,10.697674 41.9875924,-0.00131530126 29.8008127,0 C25.3875139,0.000657650629 21.6732955,1.40474174 20.2731364,3.89625115" id="Fill-17" fill="url(#linearGradient-1)"></path>
                <path d="M22.8315331,34.9667288 C20.4533819,36.3001892 18.0592809,35.7983881 16.0344783,34.7058082 C13.9405602,33.5755532 11.4728449,35.4965859 12.0989755,37.757096 C17.8257599,58.4387591 35.8432715,49.3518293 35.1140809,43.790734 C34.4662749,38.8536838 30.8272742,33.9995992 26.3147169,34 C25.1970063,34.0004008 24.0244939,34.2981949 22.8315331,34.9667288" id="Fill-20" fill="url(#linearGradient-1)" transform="translate(23.567794, 42.323738) rotate(8.000000) translate(-23.567794, -42.323738) "></path>
                <g id="Group-9" transform="translate(0.000000, 6.000000)" fill="#000000">
                    <path d="M35.0000014,3 C38.3137099,3 41.0000014,5.6862915 41.0000014,9 L41.0000014,25 C41.0000014,28.3137085 38.3137099,31 35.0000014,31 L16.7500014,31 L10.0000014,37 L10.0000014,31 L9.00000143,31 C5.68629293,31 3.00000143,28.3137085 3.00000143,25 L3.00000143,9 C3.00000143,5.6862915 5.68629293,3 9.00000143,3 L35.0000014,3 L35.0000014,3 Z M35.0000014,2.27373675e-13 L9.00000143,2.27373675e-13 C4.02943868,2.27373675e-13 1.42553011e-06,4.02943725 1.42553011e-06,9 L1.42553011e-06,25 C-0.00234943909,29.2018973 2.90316735,32.8462455 7.00000143,33.78 L7.00000143,37 C6.99844898,38.1837664 7.69315006,39.2577653 8.77346005,39.7417441 C9.85377004,40.225723 11.1176742,40.0291793 12.0000014,39.24 L17.9000014,34 L35.0000014,34 C39.9705642,34 44.0000014,29.9705627 44.0000014,25 L44.0000014,9 C44.0000014,4.02943725 39.9705642,0 35.0000014,0 L35.0000014,2.27373675e-13 Z" id="Shape"></path>
                    <circle id="Oval" cx="22.0000014" cy="17" r="1.5"></circle>
                    <circle id="Oval" cx="32.0000014" cy="17" r="1.5"></circle>
                    <circle id="Oval" cx="12.1200014" cy="17" r="1.5"></circle>
                </g>
            </g>
        </g>
    </g>
</svg>