<?xml version="1.0" encoding="UTF-8"?>
<svg width="49px" height="45px" viewBox="0 0 49 45" version="1.1" xmlns="http://www.w3.org/2000/svg" xmlns:xlink="http://www.w3.org/1999/xlink">
    <!-- Generator: Sketch 52.2 (67145) - http://www.bohemiancoding.com/sketch -->
    <title>Group 8</title>
    <desc>Created with Sketch.</desc>
    <defs>
        <linearGradient x1="-42.0836733%" y1="79.3625952%" x2="123.571522%" y2="28.3580194%" id="linearGradient-1">
            <stop stop-color="#50D986" stop-opacity="0.5" offset="0%"></stop>
            <stop stop-color="#50D986" stop-opacity="0.79545991" offset="61.4236881%"></stop>
            <stop stop-color="#50D986" offset="100%"></stop>
        </linearGradient>
    </defs>
    <g id="Actual-Pages" stroke="none" stroke-width="1" fill="none" fill-rule="evenodd">
        <g id="Home" transform="translate(-72.000000, -1002.000000)">
            <g id="Group-8" transform="translate(59.000000, 992.000000)">
                <g id="Find-Friends-icon">
                    <path d="M27.1534832,13.7192669 C14.7594747,18.9722151 6.49667796,31.6668085 6.49667796,31.6668085 C6.49667796,31.6668085 2.36546618,38.4518823 8.01878192,39.5464186 C13.6720977,40.6405794 21.6706998,38.6708647 26.2605205,42.8296521 C30.8499681,46.9880639 49.1152155,53.1165661 53.2464273,42.8296521 C56.9794814,33.5343565 42.7805166,12.9815629 30.864148,12.9793092 C29.5924318,12.9789336 28.3487024,13.2125649 27.1534832,13.7192669" id="Fill-23" fill="url(#linearGradient-1)" transform="translate(29.447320, 30.725650) rotate(-53.000000) translate(-29.447320, -30.725650) "></path>
                    <path d="M62,28 C62,25.2385763 59.7614237,23 57,23 L50,23 L50,16 C50,13 48.28,10 45,10 C41.72,10 40,13 40,16 L40,18.76 L36.39,22.37 L31.77,23.87 C31.3083957,22.7463697 30.2147508,22.0120089 29,22.01 L24,22.01 C22.3431458,22.01 21,23.3531458 21,25.01 L21,47.01 C21,48.6668542 22.3431458,50.01 24,50.01 L29,50.01 C30.6568542,50.01 32,48.6668542 32,47.01 L32,46.62 L36.34,49.51 C36.8320683,49.8364014 37.409518,50.010332 38,50.01 L57,50.01 C59.7614237,50.01 62,47.7714237 62,45.01 L62,44.01 C61.4641016,43.0817968 61.4641016,41.9382032 62,41.01 L62,38.01 C61.4641016,37.0817968 61.4641016,35.9382032 62,35.01 L62,32.01 C61.4641016,31.0817968 61.4641016,29.9382032 62,29.01 L62,28 Z M29,47 L24,47 L24,25 L29,25 L29,47 Z M59,29 L57.5,29 C56.6715729,29 56,29.6715729 56,30.5 C56,31.3284271 56.6715729,32 57.5,32 L59,32 L59,35 L57.5,35 C56.6715729,35 56,35.6715729 56,36.5 C56,37.3284271 56.6715729,38 57.5,38 L59,38 L59,41 L57.5,41 C56.6715729,41 56,41.6715729 56,42.5 C56,43.3284271 56.6715729,44 57.5,44 L59,44 L59,45 C59,46.1045695 58.1045695,47 57,47 L38,47 L32,43 L32,26.94 L38,25 L43,20 L43,16 C43,16 43,13 45,13 C47,13 47,16 47,16 L47,26 L57,26 C58.1045695,26 59,26.8954305 59,28 L59,29 Z" id="Shape" fill="#000000"></path>
                </g>
                <g id="Shape-2" transform="translate(21.000000, 10.000000)"></g>
            </g>
        </g>
    </g>
</svg>