<?xml version="1.0" encoding="UTF-8"?>
<svg width="57px" height="51px" viewBox="0 0 57 51" version="1.1" xmlns="http://www.w3.org/2000/svg" xmlns:xlink="http://www.w3.org/1999/xlink">
    <!-- Generator: Sketch 52.2 (67145) - http://www.bohemiancoding.com/sketch -->
    <title>Saving Tips icon</title>
    <desc>Created with Sketch.</desc>
    <defs>
        <linearGradient x1="-42.0836733%" y1="79.3625952%" x2="123.571522%" y2="28.3580194%" id="linearGradient-1">
            <stop stop-color="#50D986" stop-opacity="0.5" offset="0%"></stop>
            <stop stop-color="#50D986" offset="100%"></stop>
        </linearGradient>
        <linearGradient x1="-45.0224961%" y1="80.267447%" x2="123.571522%" y2="28.3580194%" id="linearGradient-2">
            <stop stop-color="#50D986" stop-opacity="0.5" offset="1.74313584%"></stop>
            <stop stop-color="#50D986" offset="100%"></stop>
        </linearGradient>
    </defs>
    <g id="Actual-Pages" stroke="none" stroke-width="1" fill="none" fill-rule="evenodd">
        <g id="Home" transform="translate(-245.000000, -997.000000)">
            <g id="Saving-Tips-icon" transform="translate(245.000000, 997.000000)">
                <g id="Group-6">
                    <g id="Group-4">
                        <path d="M23,22.5 C23,31.6125549 30.6113071,39 40,39 C49.3891009,39 57,31.6125549 57,22.5 C57,13.3870492 49.3891009,6 40,6 C30.6113071,6 23,13.3870492 23,22.5" id="Fill-3" fill="url(#linearGradient-1)"></path>
                        <path d="M0,40.5 C0,46.2992135 4.70087624,51 10.4997996,51 C16.2987229,51 21,46.2992135 21,40.5 C21,34.7011874 16.2987229,30 10.4997996,30 C4.70087624,30 0,34.7011874 0,40.5" id="Fill-6" fill="url(#linearGradient-2)"></path>
                        <path d="M2,8.99959087 C2,13.9704973 6.02950268,18 11,18 C15.9704973,18 20,13.9704973 20,8.99959087 C20,4.02909355 15.9704973,0 11,0 C6.02950268,0 2,4.02909355 2,8.99959087" id="Fill-9" fill="url(#linearGradient-2)"></path>
                    </g>
                    <g id="Group-2" transform="translate(3.000000, 5.000000)" fill="#000000">
                        <circle id="Oval" cx="36.5" cy="16.5" r="1.5"></circle>
                        <path d="M45.0975849,14.5947893 C43.4475849,10.5947893 40.0975849,7.71478932 35.4475849,6.06478932 L36.6875849,1.92478932 C36.8539003,1.36151072 36.6761764,0.752986412 36.2328433,0.367760052 C35.7895102,-0.0174663085 35.1621367,-0.108516848 34.6275849,0.134789317 L24.9675849,4.54478932 C13.5575849,4.82478932 5.60758486,11.0547893 5.28758486,19.9647893 C3.76758486,19.5347893 3.10758486,19.0147893 3.01758486,18.6847893 C2.92758486,18.3547893 3.21758486,17.6147893 4.31758486,16.5147893 C4.86830258,15.9237698 4.85205261,15.0027699 4.28082846,14.4315457 C3.7096043,13.8603216 2.78860437,13.8440716 2.19758486,14.3947893 C0.387584859,16.2047893 -0.312415141,17.9147893 0.127584859,19.4847893 C0.567584859,21.0547893 2.18758486,22.2947893 4.89758486,22.9647893 C5.02046407,22.9797571 5.14470565,22.9797571 5.26758486,22.9647893 C5.33749285,22.9698649 5.40767687,22.9698649 5.47758486,22.9647893 C6.18758486,27.0447893 8.62758486,29.8147893 11.2575849,31.9647893 L11.2575849,37.2147893 C11.2434462,40.028954 13.4468229,42.3557199 16.2575849,42.4947893 L19.2575849,42.4947893 C21.4816436,42.4290355 23.4108729,40.939735 24.0375849,38.8047893 L25.7575849,38.8047893 C26.3275849,38.8047893 26.9075849,38.8947893 27.4775849,38.8047893 C28.1104293,40.9295509 30.0411665,42.4038587 32.2575849,42.4547893 L35.2575849,42.4547893 C38.0683468,42.3157199 40.2717235,39.988954 40.2575849,37.1747893 L40.2575849,31.9647893 C42.0028052,30.790012 43.4731226,29.2514664 44.5675849,27.4547893 C47.207258,27.290819 49.2626727,25.0995453 49.2575849,22.4547893 L49.2575849,19.4547893 C49.2242994,17.0435916 47.4747778,14.9996794 45.0975849,14.5947893 Z M46.2575849,22.5247893 C46.2575849,23.6293588 45.3621544,24.5247893 44.2575849,24.5247893 L42.6075849,24.5247893 C41.6875849,27.3847893 39.7875849,28.6247893 37.2575849,30.5247893 L37.2575849,37.2447893 C37.2755525,38.4056988 36.4109405,39.3913564 35.2575849,39.5247893 L32.2575849,39.5247893 C31.1042292,39.3913564 30.2396173,38.4056988 30.2575849,37.2447893 L30.2575849,35.2447893 C27.2965462,35.9285556 24.2186235,35.9285556 21.2575849,35.2447893 L21.2575849,37.2447893 C21.2755525,38.4056988 20.4109405,39.3913564 19.2575849,39.5247893 L16.2575849,39.5247893 C15.1042292,39.3913564 14.2396173,38.4056988 14.2575849,37.2447893 L14.2575849,30.5247893 C10.5875849,27.7747893 8.25758486,25.0247893 8.25758486,20.5247893 C8.25758486,12.9647893 14.7875849,8.39478932 23.2575849,7.64478932 C23.7012693,8.04098245 24.3380886,8.13532605 24.8775849,7.88478932 L25.6675849,7.52478932 L25.8575849,7.52478932 L25.7775849,7.52478932 L32.8675849,4.28478932 L30.8675849,11.1447893 C30.6777345,11.9205328 31.1289948,12.7090013 31.8940237,12.9382434 C32.6590526,13.1674855 33.46955,12.7571047 33.7375849,12.0047893 L34.6375849,9.00478932 C38.8475849,10.5447893 41.9475849,13.3547893 42.9475849,17.5947893 L44.2975849,17.5947893 C45.4021544,17.5947893 46.2975849,18.4902198 46.2975849,19.5947893 L46.2575849,22.5247893 Z" id="Shape"></path>
                    </g>
                </g>
            </g>
        </g>
    </g>
</svg>